<svg width="71" height="13" viewBox="0 0 71 13" fill="none" xmlns="http://www.w3.org/2000/svg">
    <path d="M22.206 9.22917C20.789 9.22917 19.8615 8.23467 19.8615 6.6207C19.8615 5.00673 20.789 4.06599 22.206 4.06599C23.623 4.06599 24.5504 5.00673 24.5504 6.6207C24.5504 8.23467 23.6243 9.22917 22.206 9.22917ZM22.206 2.23828C19.6167 2.23828 17.9536 4.09415 17.9536 6.64758C17.9536 9.20101 19.6167 11.0569 22.206 11.0569C24.7952 11.0569 26.4856 9.20229 26.4856 6.64758C26.4856 4.09287 24.7952 2.23828 22.206 2.23828Z" fill="black"/>
    <path d="M33.682 10.8431H28.1214C27.6693 10.8431 27.3041 10.4822 27.3041 10.0367V2.3739H29.348V8.96161H33.682V10.8431Z" fill="black"/>
    <path d="M12.9654 9.22917C11.5484 9.22917 10.6754 8.23467 10.6754 6.6207C10.6754 5.00673 11.5471 4.06599 12.9654 4.06599C14.3837 4.06599 15.2555 5.00673 15.2555 6.6207C15.2555 8.23467 14.3825 9.22917 12.9654 9.22917ZM12.9654 2.23828C10.3762 2.23828 8.76746 4.09415 8.76746 6.64758C8.76746 9.20101 10.3762 11.0569 12.9654 11.0569C15.5547 11.0569 17.1906 9.20229 17.1906 6.64758C17.1906 4.09287 15.556 2.23828 12.9654 2.23828Z" fill="black"/>
    <path d="M4.40629 11.0313C1.87145 11.0313 0.453125 9.01548 0.453125 6.59517C0.453125 4.17485 1.87015 2.23962 4.37779 2.23962C6.31293 2.23962 7.67555 3.39539 8.13926 5.03623V5.30502H6.34013C5.98522 4.68682 5.55001 4.12238 4.37779 4.12238C3.01517 4.12238 2.33386 5.30501 2.33386 6.6502C2.33386 7.85972 3.01517 9.15115 4.37779 9.15115C5.55001 9.15115 5.98652 8.61359 6.34013 8.02227H8.13926V8.29105C7.67555 9.93062 6.39453 11.0339 4.40499 11.0339L4.40629 11.0313Z" fill="black"/>
    <path d="M68.837 0.715088H37.3905C36.4631 0.715088 35.7118 1.45616 35.7118 2.3713V10.8162C35.7118 11.73 36.4631 12.4724 37.3905 12.4724H68.837C69.7644 12.4724 70.5157 11.7313 70.5157 10.8162V2.3713C70.5157 1.45744 69.7644 0.715088 68.837 0.715088Z" fill="black"/>
    <path d="M68.4871 10.8148H63.5625V2.37122H68.4871V4.24757H65.6479C65.5935 4.24757 65.5494 4.29109 65.5494 4.34484V5.66955C65.5494 5.72331 65.5935 5.76554 65.6479 5.76554H68.2073V7.39359H65.6479C65.5935 7.39359 65.5494 7.43711 65.5494 7.49087V8.84245C65.5494 8.89621 65.5935 8.93973 65.6479 8.93973H68.4871V10.8161V10.8148Z" fill="white"/>
    <path d="M59.7299 10.843H57.6315V4.24757H55.1135V2.37122H62.2479V4.24757H59.7299V10.843Z" fill="white"/>
    <path d="M55.9529 10.843H53.9102L53.1784 8.86549C53.1642 8.8271 53.1266 8.80022 53.0839 8.80022H50.0348C49.9933 8.80022 49.9545 8.82582 49.9402 8.86549L49.2084 10.843H47.1658L50.7472 2.37122H52.3417L55.9503 10.843H55.9529Z" fill="white"/>
    <path d="M50.6967 7.2005H52.3961C52.466 7.2005 52.5139 7.13266 52.4906 7.06739L51.6409 4.78146C51.6267 4.74307 51.5891 4.71619 51.5464 4.71619C51.5036 4.71619 51.4674 4.74179 51.4518 4.78146L50.6021 7.06739C50.5775 7.13138 50.6267 7.2005 50.6967 7.2005Z" fill="black"/>
    <path d="M46.0492 10.843H44.2307V6.02537C44.2307 5.97289 44.1879 5.93065 44.1348 5.93065C44.0921 5.93065 44.0545 5.95881 44.0428 5.99849L42.6077 10.843H41.1803L39.7451 5.99849C39.7335 5.95881 39.6959 5.93065 39.6532 5.93065C39.6001 5.93065 39.5573 5.97289 39.5573 6.02537V10.843H37.7388V2.37122H40.1454L41.7722 7.839C41.7865 7.88636 41.8305 7.91836 41.8797 7.91836C41.929 7.91836 41.973 7.88636 41.9873 7.839L43.6141 2.37122H46.0479V10.843H46.0492Z" fill="white"/>
</svg>